<?xml version="1.0" standalone="no"?>
<!DOCTYPE svg PUBLIC "-//W3C//DTD SVG 20010904//EN"
 "http://www.w3.org/TR/2001/REC-SVG-20010904/DTD/svg10.dtd">
<svg version="1.0" xmlns="http://www.w3.org/2000/svg"
 width="162.000000pt" height="162.000000pt" viewBox="0 0 162.000000 162.000000"
 preserveAspectRatio="xMidYMid meet">
	<g transform="translate(0.000000,162.000000) scale(0.100000,-0.100000)"
	   fill="#db1c1c" stroke="none">
		<path d="M520 825 l0 -105 70 0 c54 0 70 3 70 14 0 11 -14 16 -47 18 -41 3
	-48 6 -51 26 -3 20 1 22 42 22 39 0 46 3 46 20 0 17 -7 20 -45 20 -41 0 -45 2
	-45 25 0 23 3 25 51 25 43 0 50 3 47 18 -3 14 -16 18 -71 20 l-67 3 0 -106z"/>
		<path d="M700 826 c0 -98 1 -106 20 -106 16 0 19 8 22 63 l3 62 44 -62 c27
	-39 51 -63 62 -63 17 0 19 9 19 105 0 98 -1 105 -20 105 -17 0 -19 -8 -22 -67
	l-3 -68 -45 65 c-25 36 -53 66 -63 68 -15 3 -17 -8 -17 -102z"/>
		<path d="M964 921 c-75 -32 -71 -169 5 -201 61 -25 131 18 131 81 0 28 -2 29
	-45 29 -35 0 -45 -4 -45 -16 0 -9 9 -18 20 -21 23 -6 22 -21 -2 -37 -25 -15
	-65 7 -72 42 -15 65 41 116 84 77 10 -9 29 -15 41 -13 l22 3 -24 28 c-26 30
	-79 43 -115 28z"/>
	</g>
</svg>
