<svg width="50" height="25" viewBox="0 0 50 25" fill="none" xmlns="http://www.w3.org/2000/svg">
	<g filter="url(#filter0_d_1_2)">
		<path d="M5.2642 21V6.45455H15.0653V8.99006H8.33949V12.456H14.5611V14.9915H8.33949V18.4645H15.0938V21H5.2642ZM29.6765 6.45455V21H27.0202L20.6921 11.8452H20.5856V21H17.5103V6.45455H20.2092L26.4876 15.6023H26.6154V6.45455H29.6765ZM41.8622 11.1562C41.7628 10.8106 41.6231 10.5052 41.4432 10.2401C41.2633 9.97017 41.0431 9.7429 40.7827 9.55824C40.527 9.36884 40.2334 9.22443 39.902 9.125C39.5753 9.02557 39.2131 8.97585 38.8153 8.97585C38.072 8.97585 37.4186 9.16051 36.8551 9.52983C36.2964 9.89915 35.8608 10.4366 35.5483 11.142C35.2358 11.8428 35.0795 12.6998 35.0795 13.7131C35.0795 14.7263 35.2334 15.5881 35.5412 16.2983C35.849 17.0085 36.2846 17.5507 36.848 17.9247C37.4115 18.294 38.0767 18.4787 38.8438 18.4787C39.5398 18.4787 40.134 18.3556 40.6264 18.1094C41.1236 17.8584 41.5024 17.5057 41.7628 17.0511C42.0279 16.5966 42.1605 16.0592 42.1605 15.4389L42.7855 15.5312H39.0355V13.2159H45.1222V15.0483C45.1222 16.3267 44.8523 17.4252 44.3125 18.3438C43.7727 19.2576 43.0294 19.9631 42.0824 20.4602C41.1354 20.9527 40.0511 21.1989 38.8295 21.1989C37.4659 21.1989 36.268 20.8982 35.2358 20.2969C34.2036 19.6908 33.3987 18.8314 32.821 17.7188C32.2481 16.6013 31.9616 15.2756 31.9616 13.7415C31.9616 12.5625 32.1321 11.5114 32.473 10.5881C32.8187 9.66004 33.3016 8.87405 33.9219 8.23011C34.5421 7.58617 35.2642 7.09612 36.0881 6.75994C36.9119 6.42377 37.8045 6.25568 38.7656 6.25568C39.5895 6.25568 40.3565 6.37642 41.0668 6.6179C41.777 6.85464 42.4067 7.19081 42.956 7.62642C43.5099 8.06203 43.9621 8.58049 44.3125 9.18182C44.6629 9.77841 44.8878 10.4366 44.9872 11.1562H41.8622Z" fill="#DB1C1C"/>
		<path d="M5.2642 21H4.2642V22H5.2642V21ZM5.2642 6.45455V5.45455H4.2642V6.45455H5.2642ZM15.0653 6.45455H16.0653V5.45455H15.0653V6.45455ZM15.0653 8.99006V9.99006H16.0653V8.99006H15.0653ZM8.33949 8.99006V7.99006H7.33949V8.99006H8.33949ZM8.33949 12.456H7.33949V13.456H8.33949V12.456ZM14.5611 12.456H15.5611V11.456H14.5611V12.456ZM14.5611 14.9915V15.9915H15.5611V14.9915H14.5611ZM8.33949 14.9915V13.9915H7.33949V14.9915H8.33949ZM8.33949 18.4645H7.33949V19.4645H8.33949V18.4645ZM15.0938 18.4645H16.0938V17.4645H15.0938V18.4645ZM15.0938 21V22H16.0938V21H15.0938ZM6.2642 21V6.45455H4.2642V21H6.2642ZM5.2642 7.45455H15.0653V5.45455H5.2642V7.45455ZM14.0653 6.45455V8.99006H16.0653V6.45455H14.0653ZM15.0653 7.99006H8.33949V9.99006H15.0653V7.99006ZM7.33949 8.99006V12.456H9.33949V8.99006H7.33949ZM8.33949 13.456H14.5611V11.456H8.33949V13.456ZM13.5611 12.456V14.9915H15.5611V12.456H13.5611ZM14.5611 13.9915H8.33949V15.9915H14.5611V13.9915ZM7.33949 14.9915V18.4645H9.33949V14.9915H7.33949ZM8.33949 19.4645H15.0938V17.4645H8.33949V19.4645ZM14.0938 18.4645V21H16.0938V18.4645H14.0938ZM15.0938 20H5.2642V22H15.0938V20ZM29.6765 6.45455H30.6765V5.45455H29.6765V6.45455ZM29.6765 21V22H30.6765V21H29.6765ZM27.0202 21L26.1976 21.5686L26.4958 22H27.0202V21ZM20.6921 11.8452L21.5147 11.2766L21.2165 10.8452H20.6921V11.8452ZM20.5856 11.8452V10.8452H19.5856V11.8452H20.5856ZM20.5856 21V22H21.5856V21H20.5856ZM17.5103 21H16.5103V22H17.5103V21ZM17.5103 6.45455V5.45455H16.5103V6.45455H17.5103ZM20.2092 6.45455L21.0337 5.88867L20.7357 5.45455H20.2092V6.45455ZM26.4876 15.6023L25.6631 16.1681L25.961 16.6023H26.4876V15.6023ZM26.6154 15.6023V16.6023H27.6154V15.6023H26.6154ZM26.6154 6.45455V5.45455H25.6154V6.45455H26.6154ZM28.6765 6.45455V21H30.6765V6.45455H28.6765ZM29.6765 20H27.0202V22H29.6765V20ZM27.8428 20.4314L21.5147 11.2766L19.8695 12.4138L26.1976 21.5686L27.8428 20.4314ZM20.6921 10.8452H20.5856V12.8452H20.6921V10.8452ZM19.5856 11.8452V21H21.5856V11.8452H19.5856ZM20.5856 20H17.5103V22H20.5856V20ZM18.5103 21V6.45455H16.5103V21H18.5103ZM17.5103 7.45455H20.2092V5.45455H17.5103V7.45455ZM19.3847 7.02042L25.6631 16.1681L27.3121 15.0364L21.0337 5.88867L19.3847 7.02042ZM26.4876 16.6023H26.6154V14.6023H26.4876V16.6023ZM27.6154 15.6023V6.45455H25.6154V15.6023H27.6154ZM26.6154 7.45455H29.6765V5.45455H26.6154V7.45455ZM41.8622 11.1562L40.9012 11.4327L41.1093 12.1562H41.8622V11.1562ZM41.4432 10.2401L40.6111 10.7948L40.6157 10.8016L41.4432 10.2401ZM40.7827 9.55824L40.1874 10.3618L40.1958 10.368L40.2042 10.374L40.7827 9.55824ZM39.902 9.125L39.6108 10.0817L39.6146 10.0828L39.902 9.125ZM36.8551 9.52983L36.3069 8.69347L36.3037 8.69561L36.8551 9.52983ZM35.5483 11.142L36.4616 11.5493L36.4626 11.547L35.5483 11.142ZM36.848 17.9247L36.2949 18.7579L36.2998 18.7611L36.848 17.9247ZM40.6264 18.1094L41.0736 19.0038L41.077 19.0021L40.6264 18.1094ZM41.7628 17.0511L40.899 16.5473L40.8951 16.554L41.7628 17.0511ZM42.1605 15.4389L42.3067 14.4497L41.1605 14.2803V15.4389H42.1605ZM42.7855 15.5312V16.5312L42.9317 14.542L42.7855 15.5312ZM39.0355 15.5312H38.0355V16.5312H39.0355V15.5312ZM39.0355 13.2159V12.2159H38.0355V13.2159H39.0355ZM45.1222 13.2159H46.1222V12.2159H45.1222V13.2159ZM44.3125 18.3438L45.1735 18.8523L45.1747 18.8504L44.3125 18.3438ZM42.0824 20.4602L42.5437 21.3475L42.5472 21.3456L42.0824 20.4602ZM35.2358 20.2969L34.7295 21.1592L34.7324 21.1609L35.2358 20.2969ZM32.821 17.7188L31.9312 18.175L31.9335 18.1795L32.821 17.7188ZM32.473 10.5881L31.5359 10.239L31.5349 10.2417L32.473 10.5881ZM33.9219 8.23011L34.6421 8.92386L34.6421 8.92386L33.9219 8.23011ZM36.0881 6.75994L35.7103 5.83406L35.7103 5.83406L36.0881 6.75994ZM41.0668 6.6179L40.7449 7.56469L40.7505 7.56658L41.0668 6.6179ZM42.956 7.62642L42.3346 8.40992L42.3378 8.41251L42.956 7.62642ZM44.3125 9.18182L43.4485 9.68527L43.4502 9.68824L44.3125 9.18182ZM44.9872 11.1562V12.1562H46.1349L45.9778 11.0194L44.9872 11.1562ZM42.8232 10.8798C42.6982 10.4449 42.5166 10.041 42.2707 9.67856L40.6157 10.8016C40.7296 10.9694 40.8274 11.1763 40.9012 11.4327L42.8232 10.8798ZM42.2752 9.68536C42.0286 9.31534 41.7229 8.99908 41.3611 8.74251L40.2042 10.374C40.3632 10.4867 40.498 10.625 40.6111 10.7948L42.2752 9.68536ZM41.3779 8.75468C41.0215 8.49067 40.6219 8.29693 40.1893 8.16717L39.6146 10.0828C39.845 10.1519 40.0325 10.247 40.1874 10.3618L41.3779 8.75468ZM40.1931 8.16833C39.758 8.0359 39.2959 7.97585 38.8153 7.97585V9.97585C39.1302 9.97585 39.3925 10.0152 39.6108 10.0817L40.1931 8.16833ZM38.8153 7.97585C37.8981 7.97585 37.0499 8.20647 36.3069 8.69348L37.4033 10.3662C37.7872 10.1146 38.2458 9.97585 38.8153 9.97585V7.97585ZM36.3037 8.69561C35.5623 9.18566 35.0119 9.88394 34.634 10.737L36.4626 11.547C36.7097 10.9892 37.0305 10.6126 37.4065 10.364L36.3037 8.69561ZM34.635 10.7348C34.2501 11.5978 34.0795 12.6023 34.0795 13.7131H36.0795C36.0795 12.7973 36.2214 12.0878 36.4616 11.5493L34.635 10.7348ZM34.0795 13.7131C34.0795 14.8228 34.2475 15.8278 34.6236 16.6959L36.4587 15.9007C36.2194 15.3483 36.0795 14.6298 36.0795 13.7131H34.0795ZM34.6236 16.6959C34.9968 17.5572 35.5481 18.2621 36.2949 18.7578L37.4011 17.0916C37.021 16.8393 36.7011 16.4599 36.4587 15.9007L34.6236 16.6959ZM36.2998 18.7611C37.0479 19.2514 37.9097 19.4787 38.8438 19.4787V17.4787C38.2437 17.4787 37.775 17.3366 37.3962 17.0884L36.2998 18.7611ZM38.8438 19.4787C39.6551 19.4787 40.4106 19.3353 41.0736 19.0038L40.1792 17.2149C39.8574 17.3758 39.4245 17.4787 38.8438 17.4787V19.4787ZM41.077 19.0021C41.7374 18.6688 42.2665 18.1836 42.6305 17.5482L40.8951 16.554C40.7382 16.8278 40.5098 17.0481 40.1758 17.2167L41.077 19.0021ZM42.6266 17.555C42.9957 16.9222 43.1605 16.2044 43.1605 15.4389H41.1605C41.1605 15.914 41.0601 16.271 40.899 16.5473L42.6266 17.555ZM42.0144 16.4282L42.6394 16.5205L42.9317 14.542L42.3067 14.4497L42.0144 16.4282ZM42.7855 14.5312H39.0355V16.5312H42.7855V14.5312ZM40.0355 15.5312V13.2159H38.0355V15.5312H40.0355ZM39.0355 14.2159H45.1222V12.2159H39.0355V14.2159ZM44.1222 13.2159V15.0483H46.1222V13.2159H44.1222ZM44.1222 15.0483C44.1222 16.1843 43.8833 17.1003 43.4503 17.8371L45.1747 18.8504C45.8212 17.7501 46.1222 16.4691 46.1222 15.0483H44.1222ZM43.4515 17.8352C43.007 18.5877 42.4014 19.1633 41.6176 19.5748L42.5472 21.3456C43.6573 20.7628 44.5385 19.9274 45.1735 18.8523L43.4515 17.8352ZM41.621 19.573C40.8359 19.9813 39.9139 20.1989 38.8295 20.1989V22.1989C40.1884 22.1989 41.4349 21.924 42.5437 21.3474L41.621 19.573ZM38.8295 20.1989C37.6173 20.1989 36.598 19.9331 35.7392 19.4328L34.7324 21.1609C35.938 21.8633 37.3145 22.1989 38.8295 22.1989V20.1989ZM35.7421 19.4345C34.8801 18.9284 34.2038 18.2119 33.7085 17.258L31.9335 18.1795C32.5936 19.451 33.5271 20.4532 34.7295 21.1592L35.7421 19.4345ZM33.7109 17.2625C33.2247 16.3142 32.9616 15.1516 32.9616 13.7415H30.9616C30.9616 15.3996 31.2715 16.8885 31.9312 18.175L33.7109 17.2625ZM32.9616 13.7415C32.9616 12.6579 33.1184 11.7273 33.4111 10.9344L31.5349 10.2417C31.1459 11.2954 30.9616 12.4671 30.9616 13.7415H32.9616ZM33.4101 10.9371C33.7131 10.1237 34.1268 9.45883 34.6421 8.92386L33.2017 7.53637C32.4764 8.28927 31.9243 9.19634 31.5359 10.239L33.4101 10.9371ZM34.6421 8.92386C35.1661 8.37982 35.7717 7.96907 36.4659 7.68583L35.7103 5.83406C34.7567 6.22316 33.9181 6.79253 33.2017 7.53637L34.6421 8.92386ZM36.4659 7.68583C37.1605 7.4024 37.9235 7.25568 38.7656 7.25568V5.25568C37.6854 5.25568 36.6634 5.44513 35.7103 5.83406L36.4659 7.68583ZM38.7656 7.25568C39.4907 7.25568 40.148 7.36173 40.7449 7.56467L41.3887 5.67112C40.5651 5.39111 39.6883 5.25568 38.7656 5.25568V7.25568ZM40.7505 7.56658C41.3577 7.76899 41.8827 8.05153 42.3346 8.40992L43.5774 6.84292C42.9308 6.3301 42.1962 5.94029 41.383 5.66921L40.7505 7.56658ZM42.3378 8.41251C42.7941 8.77124 43.1623 9.1942 43.4485 9.68526L45.1765 8.67837C44.7619 7.96679 44.2258 7.35282 43.5741 6.84033L42.3378 8.41251ZM43.4502 9.68824C43.7306 10.1656 43.9143 10.6972 43.9966 11.2931L45.9778 11.0194C45.8613 10.1759 45.5952 9.39117 45.1748 8.6754L43.4502 9.68824ZM44.9872 10.1562H41.8622V12.1562H44.9872V10.1562Z" fill="#413737"/>
	</g>
	<defs>
		<filter id="filter0_d_1_2" x="4.26419" y="6.25568" width="41.858" height="17.9432" filterUnits="userSpaceOnUse" color-interpolation-filters="sRGB">
			<feFlood flood-opacity="0" result="BackgroundImageFix"/>
			<feColorMatrix in="SourceAlpha" type="matrix" values="0 0 0 0 0 0 0 0 0 0 0 0 0 0 0 0 0 0 127 0" result="hardAlpha"/>
			<feOffset dy="2"/>
			<feGaussianBlur stdDeviation="0.5"/>
			<feComposite in2="hardAlpha" operator="out"/>
			<feColorMatrix type="matrix" values="0 0 0 0 0 0 0 0 0 0 0 0 0 0 0 0 0 0 0.1 0"/>
			<feBlend mode="normal" in2="BackgroundImageFix" result="effect1_dropShadow_1_2"/>
			<feBlend mode="normal" in="SourceGraphic" in2="effect1_dropShadow_1_2" result="shape"/>
		</filter>
	</defs>
</svg>
